<?xml version="1.0" standalone="no"?>
<!DOCTYPE svg PUBLIC "-//W3C//DTD SVG 20010904//EN"
 "http://www.w3.org/TR/2001/REC-SVG-20010904/DTD/svg10.dtd">
<svg version="1.0" xmlns="http://www.w3.org/2000/svg"
 width="1024.000000pt" height="1024.000000pt" viewBox="0 0 1024.000000 1024.000000"
 preserveAspectRatio="xMidYMid meet">
<metadata>
Created by potrace 1.14, written by Peter Selinger 2001-2017
</metadata>
<g transform="translate(0.000000,1024.000000) scale(0.100000,-0.100000)"
fill="#000000" stroke="none">
<path d="M1737 8970 c-119 -19 -207 -55 -207 -85 0 -40 82 -62 280 -75 343
-23 573 -41 690 -55 426 -49 861 -73 1520 -84 772 -13 1421 4 1860 49 52 5
136 12 185 15 156 10 348 25 398 31 42 5 47 4 47 -14 0 -12 4 -24 10 -27 6 -3
10 -1 10 4 0 6 7 11 15 11 8 0 15 5 15 10 0 6 18 10 40 10 22 0 40 -4 40 -10
0 -13 97 -13 102 1 2 5 24 10 48 11 25 0 48 5 52 12 5 8 175 11 625 11 607 0
620 -1 723 -23 122 -27 280 -69 288 -77 10 -10 -101 -115 -268 -253 -352 -290
-523 -446 -920 -837 -364 -358 -508 -485 -820 -721 -422 -319 -649 -465 -1112
-713 -89 -47 -98 -50 -107 -34 -9 16 -10 16 -11 1 0 -23 -19 -33 -33 -19 -9 9
-8 11 6 6 22 -9 22 -3 -2 23 -10 12 -28 22 -40 22 -11 0 -21 5 -21 10 0 6 7
10 16 10 11 0 14 6 9 20 -5 15 -2 20 11 20 13 0 15 6 10 32 -17 86 -19 140 -5
150 11 7 11 11 2 15 -7 2 -13 18 -13 34 0 25 4 29 28 29 15 0 32 4 38 10 6 6
11 -1 12 -21 1 -18 7 -39 12 -48 7 -11 8 4 3 44 -3 33 -10 62 -15 63 -4 2 -8
12 -8 23 0 11 -6 22 -14 25 -9 3 -14 17 -13 32 2 25 5 27 64 29 46 2 62 -1 67
-12 3 -8 15 -15 26 -15 12 0 18 -4 15 -10 -11 -17 3 -11 27 13 28 27 88 51 88
34 0 -5 3 -8 6 -4 3 3 2 13 -4 23 -6 11 -11 13 -16 5 -9 -14 -36 -15 -36 -1 0
6 8 10 18 10 24 1 -36 50 -61 50 -10 0 -15 5 -12 10 3 6 -1 10 -9 10 -9 0 -16
-9 -16 -20 0 -11 -4 -20 -10 -20 -5 0 -10 11 -10 25 0 25 -1 25 -77 23 -69 -1
-73 -2 -33 -8 l45 -7 -47 -1 c-26 -1 -50 -7 -53 -12 -4 -6 -11 -7 -17 -4 -18
11 -58 13 -58 3 0 -5 -86 -9 -200 -9 l-200 0 0 39 c0 26 -5 41 -16 45 -24 9
-54 7 -54 -4 0 -5 -7 -7 -15 -4 -19 8 -65 -22 -65 -41 0 -8 5 -15 10 -15 6 0
10 7 10 15 0 12 28 35 44 35 3 0 6 -16 6 -35 0 -34 -1 -35 -40 -35 -23 0 -40
-5 -40 -11 0 -6 -7 -9 -14 -6 -11 4 -13 1 -9 -10 5 -12 2 -15 -10 -10 -8 3
-21 -1 -27 -8 -7 -8 -16 -13 -20 -10 -5 3 -12 -9 -16 -27 -10 -43 -9 -39 -23
-72 -6 -16 -10 -39 -8 -50 4 -20 4 -19 6 2 2 45 21 21 21 -28 0 -27 -4 -50
-10 -50 -6 0 -10 -30 -10 -70 0 -38 -4 -70 -9 -70 -4 0 -4 -22 2 -50 5 -28 15
-50 22 -50 7 0 16 -7 19 -16 10 -26 7 -29 -10 -8 -15 18 -15 17 -1 -6 8 -14
24 -26 36 -28 22 -4 28 -17 11 -27 -13 -8 -13 -28 1 -23 6 2 10 7 10 11 -1 11
33 44 41 40 4 -2 10 13 14 34 5 25 3 38 -5 41 -14 5 -15 42 -1 42 6 0 10 -8
10 -19 0 -31 43 -32 64 -2 11 14 13 20 6 14 -16 -15 -50 -17 -50 -4 0 5 15 12
33 16 28 7 29 9 10 12 -28 5 -28 7 -6 33 16 19 18 19 25 3 5 -14 7 -12 7 8 1
20 -4 26 -16 25 -12 -1 -19 7 -20 24 -1 16 0 18 3 7 8 -27 29 -14 27 17 -1 16
3 26 12 26 7 0 21 3 30 6 10 4 15 2 13 -6 -2 -7 20 -20 52 -31 43 -16 60 -17
79 -9 18 8 26 8 32 -2 4 -6 5 -16 3 -20 -3 -5 -6 -43 -6 -86 0 -54 -2 -71 -9
-57 -8 18 -9 18 -7 -5 2 -34 -12 -81 -22 -75 -5 3 -11 1 -15 -5 -3 -5 1 -10 9
-10 8 0 18 5 21 10 12 19 25 10 25 -16 0 -34 -28 -63 -41 -43 -8 12 -10 12
-18 0 -5 -7 -14 -11 -20 -7 -7 5 -9 1 -5 -8 3 -9 10 -16 15 -16 5 0 9 -18 9
-40 0 -22 -4 -40 -10 -40 -5 0 -10 14 -10 30 0 36 -4 37 -33 7 -30 -29 -43
-61 -22 -53 8 3 15 1 15 -4 0 -5 16 -6 36 -3 24 4 39 2 44 -7 5 -7 28 -13 54
-14 25 -1 41 -2 36 -4 -6 -2 -10 -8 -10 -13 0 -6 5 -7 11 -3 7 4 10 -1 7 -12
-4 -26 -168 -109 -340 -173 -74 -27 -146 -53 -160 -56 -25 -7 -53 14 -274 206
-54 47 -126 105 -159 130 -433 318 -683 589 -1205 1308 -347 477 -548 724
-701 860 -124 110 -196 147 -383 197 -38 10 -67 25 -85 44 -36 39 -72 52 -111
39 -53 -19 -75 -91 -46 -147 34 -65 107 -103 252 -133 52 -10 112 -28 133 -39
64 -32 184 -134 274 -233 166 -181 257 -299 694 -892 409 -556 615 -781 998
-1088 83 -67 182 -151 220 -188 146 -140 269 -239 310 -250 56 -16 140 -5 221
29 38 16 107 44 154 62 155 60 290 135 410 230 150 119 210 158 431 283 382
215 615 372 1003 675 308 240 508 416 821 722 384 376 522 500 840 752 298
237 359 291 411 365 43 59 49 74 52 128 4 57 2 65 -24 94 -19 21 -47 36 -84
46 -179 49 -290 75 -409 95 -130 22 -146 23 -640 17 -471 -5 -904 -25 -1236
-56 -55 -6 -143 -13 -195 -16 -52 -3 -165 -12 -250 -20 -674 -64 -1793 -72
-2600 -20 -243 16 -457 37 -869 84 -283 33 -560 46 -654 31z m3703 -2280 c0
-5 -4 -10 -10 -10 -5 0 -10 5 -10 10 0 6 5 10 10 10 6 0 10 -4 10 -10z m-920
-20 c0 -5 -5 -10 -11 -10 -5 0 -7 5 -4 10 3 6 8 10 11 10 2 0 4 -4 4 -10z
m860 -40 c0 -5 -2 -10 -4 -10 -3 0 -8 5 -11 10 -3 6 -1 10 4 10 6 0 11 -4 11
-10z m-880 -250 c0 -113 -4 -180 -10 -180 -6 0 -10 67 -10 180 0 113 4 180 10
180 6 0 10 -67 10 -180z m740 170 c0 -5 -4 -10 -10 -10 -5 0 -10 5 -10 10 0 6
5 10 10 10 6 0 10 -4 10 -10z m-89 -81 c-2 -8 -6 -63 -9 -123 -3 -78 -1 -106
7 -102 6 4 4 -9 -6 -28 -9 -20 -21 -36 -26 -36 -5 0 -4 6 2 14 18 21 -6 16
-52 -12 -52 -30 -67 -28 -67 7 0 16 -6 32 -12 34 -10 4 -9 8 2 16 8 5 11 13 7
17 -4 4 -15 -3 -26 -14 -10 -12 -21 -22 -25 -22 -3 0 -6 27 -6 60 0 64 7 72
30 40 19 -27 30 -25 30 4 0 16 7 27 20 31 11 3 20 11 20 16 0 5 -9 9 -20 9
-11 0 -20 -4 -20 -10 0 -5 -4 -10 -10 -10 -5 0 -10 14 -10 30 0 17 5 30 10 30
6 0 10 -4 10 -10 0 -5 8 -10 18 -10 10 0 23 -5 29 -11 18 -18 46 32 37 66 -4
17 -3 26 3 22 5 -3 15 -1 23 4 21 13 46 6 41 -12z m-91 1 c0 -5 -4 -10 -10
-10 -5 0 -10 5 -10 10 0 6 5 10 10 10 6 0 10 -4 10 -10z m20 -40 c0 -5 -4 -10
-10 -10 -5 0 -10 5 -10 10 0 6 5 10 10 10 6 0 10 -4 10 -10z m-256 -36 c5 -12
2 -15 -10 -10 -8 3 -21 6 -27 6 -7 0 -6 4 3 10 21 14 27 12 34 -6z m333 -26
c-3 -8 -6 -5 -6 6 -1 11 2 17 5 13 3 -3 4 -12 1 -19z m-197 -198 c0 -5 -4 -10
-10 -10 -5 0 -10 5 -10 10 0 6 5 10 10 10 6 0 10 -4 10 -10z m160 -11 c0 -10
-60 -2 -70 8 -3 3 5 3 18 0 12 -3 22 -1 22 4 0 4 7 6 15 3 8 -4 15 -10 15 -15z
m60 -67 c0 -16 -39 -44 -52 -39 -9 4 -7 6 4 6 9 1 20 10 23 21 6 20 25 28 25
12z m-70 -56 c0 -3 -4 -8 -10 -11 -5 -3 -10 -1 -10 4 0 6 5 11 10 11 6 0 10
-2 10 -4z m-110 -47 c0 -8 11 -9 33 -5 l32 6 -25 -23 c-24 -23 -25 -24 -34 -6
-5 11 -13 19 -18 19 -4 0 -8 5 -8 10 0 6 5 10 10 10 6 0 10 -5 10 -11z m-16
-54 c-22 -17 -34 -19 -34 -6 0 5 8 12 18 14 32 9 36 7 16 -8z"/>
<path d="M6860 8754 c0 -8 9 -14 20 -14 11 0 20 -4 20 -10 0 -10 -376 -19
-392 -8 -6 3 -20 -3 -32 -13 -18 -17 -19 -21 -6 -30 11 -8 12 -12 3 -16 -7 -2
-13 -13 -13 -24 0 -14 -7 -19 -29 -19 -16 0 -32 6 -34 13 -3 8 -16 0 -37 -21
-18 -18 -30 -35 -27 -38 3 -3 16 6 30 20 31 31 37 32 37 6 0 -11 5 -20 10 -20
6 0 10 -4 10 -9 0 -6 -24 -11 -52 -13 -36 -2 -52 -7 -50 -15 1 -7 -2 -13 -7
-13 -5 0 -12 -12 -15 -27 -4 -16 -9 -36 -12 -45 -3 -10 -1 -18 5 -18 6 0 11
14 11 30 0 17 5 30 10 30 6 0 10 -33 10 -80 0 -47 -4 -80 -10 -80 -5 0 -10
-18 -10 -40 0 -22 -4 -40 -10 -40 -5 0 -10 -17 -10 -37 -1 -21 -7 -49 -15 -63
-21 -36 -20 -146 1 -158 12 -6 13 -11 5 -16 -8 -5 -7 -12 4 -22 8 -9 19 -13
24 -10 10 7 24 -22 16 -34 -3 -4 6 -15 20 -24 28 -18 33 -41 11 -49 -8 -3 -40
1 -72 9 -40 11 -81 14 -133 10 -149 -12 -154 -12 -199 17 -23 15 -47 25 -52
22 -4 -3 -10 0 -12 7 -5 13 -88 17 -151 7 -20 -4 -40 -2 -43 2 -3 5 -12 2 -20
-6 -9 -8 -22 -15 -30 -15 -8 0 -14 -4 -14 -9 0 -5 -10 -11 -22 -13 -19 -2 -22
-8 -20 -30 2 -16 -1 -28 -7 -28 -6 0 -11 7 -11 16 0 12 -5 10 -20 -9 -12 -15
-36 -29 -56 -33 -25 -5 -32 -9 -22 -15 15 -10 50 -1 61 15 5 8 10 6 18 -4 8
-11 12 -12 16 -2 2 6 13 12 24 12 12 0 19 7 19 20 0 11 5 20 10 20 6 0 10 9
10 20 0 16 7 20 30 20 23 0 30 -4 30 -20 0 -16 -7 -20 -30 -20 -23 0 -30 -4
-30 -20 0 -11 -4 -20 -10 -20 -5 0 -10 -10 -10 -21 0 -21 -3 -22 -95 -17 -121
7 -137 -2 -230 -117 -22 -28 -32 -44 -22 -36 23 18 22 -2 -2 -23 -12 -11 -17
-25 -13 -38 3 -13 1 -19 -5 -15 -16 10 -36 -106 -31 -176 3 -35 11 -74 19 -88
13 -24 15 -30 17 -63 2 -14 7 -17 23 -13 17 4 19 3 10 -6 -6 -6 -11 -15 -11
-21 0 -6 5 -5 12 2 18 18 30 14 23 -7 -3 -12 0 -23 9 -28 8 -4 16 -19 18 -33
2 -20 8 -25 28 -23 l25 3 -22 -19 -22 -18 32 -54 c25 -43 44 -61 91 -85 33
-18 66 -29 75 -26 10 4 13 1 8 -12 -4 -10 -3 -15 3 -11 6 3 10 -1 10 -9 0 -9
4 -16 10 -16 5 0 7 7 4 15 -4 10 0 15 15 15 12 0 21 -4 21 -10 0 -5 -4 -10
-10 -10 -22 0 4 -30 33 -38 52 -14 190 -14 222 -1 17 7 33 12 38 11 4 -1 7 5
7 14 0 8 -4 13 -9 10 -4 -3 -6 6 -3 19 2 15 0 25 -7 25 -6 0 -11 5 -11 10 0 6
33 10 80 10 47 0 80 -4 80 -10 0 -11 -25 -14 -84 -10 -28 1 -37 -2 -34 -12 3
-8 18 -12 44 -10 59 4 134 23 134 33 0 5 10 9 23 9 20 0 23 4 19 30 -5 33 2
37 24 16 12 -12 19 -12 54 5 25 12 38 24 34 31 -5 8 -2 9 9 5 23 -9 21 6 -3
23 -24 17 -26 30 -4 30 21 0 47 -27 39 -41 -4 -6 2 -5 14 3 22 13 29 38 10 38
-5 0 -7 -4 -4 -10 3 -5 1 -10 -4 -10 -6 0 -11 9 -11 20 0 13 7 20 20 20 12 0
20 7 20 16 0 8 6 22 14 30 18 17 49 19 43 2 -2 -7 -11 -12 -21 -10 -12 2 -16
-5 -16 -29 0 -27 2 -30 15 -19 8 7 13 15 10 19 -2 4 7 16 21 26 49 37 150 195
140 220 -2 7 3 16 12 20 15 6 15 8 -3 15 -19 8 -19 9 1 9 27 1 40 59 18 77
-13 11 -21 84 -8 84 3 0 13 -7 21 -16 15 -14 17 -14 26 2 7 13 7 19 -1 22 -14
4 -16 135 -3 160 6 12 4 26 -6 42 -8 14 -12 17 -9 7 3 -11 2 -15 -4 -12 -6 3
-10 15 -10 26 0 11 -4 18 -9 15 -4 -3 -13 6 -20 20 -15 33 -15 34 14 34 14 0
25 -6 25 -13 0 -22 62 -46 129 -51 45 -2 67 -8 73 -20 12 -22 28 -20 28 4 0
29 66 28 91 -1 17 -20 26 -21 82 -16 71 7 99 15 91 28 -3 5 6 9 20 9 15 0 47
14 74 31 26 17 39 28 30 25 -15 -5 -16 -3 -5 14 6 11 17 20 24 20 6 0 15 5 19
12 4 7 3 8 -4 4 -7 -4 -12 -2 -12 3 0 6 -7 11 -15 11 -8 0 -15 9 -15 20 0 16
7 20 30 20 25 0 30 -4 30 -25 0 -14 5 -25 10 -25 6 0 10 7 10 15 0 8 5 15 10
15 6 0 10 7 10 15 0 19 24 19 42 1 19 -18 44 0 53 37 7 27 19 35 29 18 4 -5 0
-12 -6 -14 -10 -4 -10 -6 0 -6 7 -1 17 10 22 24 5 14 12 25 15 25 4 0 3 -5 -1
-12 -4 -6 -3 -8 4 -5 5 4 8 16 5 27 -4 14 -1 20 8 18 11 -2 13 10 11 59 -3 46
1 67 11 78 23 23 3 144 -27 168 -8 6 -7 10 2 14 6 2 12 14 12 26 0 18 -2 19
-11 7 -7 -11 -9 -1 -7 36 3 44 1 50 -14 46 -24 -6 -45 19 -52 59 -4 31 -4 33
10 15 8 -11 14 -15 14 -8 0 22 -40 39 -80 35 -24 -2 -40 0 -40 7 0 5 9 10 21
10 11 0 17 5 14 10 -3 6 -18 10 -33 10 -21 0 -24 2 -12 10 11 7 4 10 -26 10
-28 0 -44 5 -48 15 -3 8 -12 15 -21 15 -8 0 -15 7 -15 15 0 8 -4 15 -10 15 -5
0 -10 -4 -10 -10 0 -5 -5 -10 -11 -10 -6 0 -8 7 -5 16 5 13 2 15 -15 11 -24
-6 -81 11 -74 23 3 4 -26 17 -63 28 -99 30 -112 32 -112 16z m95 -24 c8 -13
-5 -13 -25 0 -13 8 -13 10 2 10 9 0 20 -4 23 -10z m-109 -200 c5 -5 33 -11 62
-13 28 -2 55 -7 59 -10 11 -11 25 -8 17 4 -4 6 19 -3 50 -20 32 -17 64 -31 72
-31 8 0 13 -4 10 -9 -7 -11 22 -23 36 -14 7 3 8 1 4 -5 -4 -7 4 -14 21 -18 24
-7 25 -8 8 -15 -22 -8 -67 -1 -76 13 -3 5 -16 10 -27 11 -12 1 -22 4 -22 8 0
3 -11 11 -25 17 -15 7 -25 8 -25 2 0 -6 -11 -10 -25 -10 -28 0 -35 19 -7 21
17 1 -61 27 -110 36 -16 3 -28 9 -28 14 0 5 -9 9 -20 9 -11 0 -20 5 -20 10 0
13 33 13 46 0z m31 -56 c-3 -3 -12 -4 -19 -1 -8 3 -5 6 6 6 11 1 17 -2 13 -5z
m163 -64 c0 -5 -18 -10 -40 -10 -22 0 -40 5 -40 10 0 6 18 10 40 10 22 0 40
-4 40 -10z m415 -120 c3 -5 1 -10 -4 -10 -6 0 -11 5 -11 10 0 6 2 10 4 10 3 0
8 -4 11 -10z m-825 -110 c0 -11 -7 -20 -15 -20 -15 0 -21 21 -8 33 12 13 23 7
23 -13z m236 -14 c23 -24 18 -49 -10 -44 -18 4 -23 1 -22 -16 1 -16 9 -22 34
-24 30 -3 32 -6 32 -43 0 -43 -14 -52 -26 -16 l-8 22 -6 -25 c-3 -15 -14 -26
-27 -28 -12 -2 -20 -9 -17 -15 3 -8 -10 -13 -37 -15 -26 -2 -38 1 -34 8 3 5 1
10 -5 10 -37 0 -55 77 -25 106 9 9 15 11 15 4 0 -6 4 -9 10 -5 5 3 6 13 3 23
-3 9 -3 14 2 10 4 -4 25 6 46 23 23 18 37 24 33 15 -3 -9 -1 -16 5 -16 6 0 11
9 11 20 0 24 6 25 26 6z m301 -42 c18 -18 16 -44 -3 -44 -8 0 -12 -4 -9 -10 3
-5 -1 -10 -9 -10 -9 0 -16 -4 -16 -9 0 -5 -8 -17 -17 -27 -13 -13 -14 -19 -5
-22 19 -6 14 -22 -8 -22 -27 0 -26 28 3 53 17 16 18 19 4 14 -21 -8 -54 20
-52 43 1 8 3 22 3 32 2 13 12 16 49 15 26 0 53 -6 60 -13z m-127 -14 c0 -5 -4
-10 -10 -10 -5 0 -10 5 -10 10 0 6 5 10 10 10 6 0 10 -4 10 -10z m-773 -67
c-3 -10 -5 -4 -5 12 0 17 2 24 5 18 2 -7 2 -21 0 -30z m800 1 c-3 -3 -12 -4
-19 -1 -8 3 -5 6 6 6 11 1 17 -2 13 -5z m-183 -69 c-4 -8 -18 -15 -32 -15 -25
0 -25 1 -6 15 25 19 45 19 38 0z m-4 -45 c0 -6 -33 -10 -80 -10 -47 0 -80 4
-80 10 0 6 33 10 80 10 47 0 80 -4 80 -10z m-530 -20 c8 -5 12 -11 10 -14 -3
-2 -14 2 -24 10 -22 15 -10 19 14 4z m-443 -26 c-3 -3 -12 -4 -19 -1 -8 3 -5
6 6 6 11 1 17 -2 13 -5z m1261 -42 c2 -7 -2 -10 -12 -6 -9 3 -16 1 -16 -5 0
-6 -4 -11 -10 -11 -5 0 -10 9 -10 21 0 15 5 20 22 17 12 -2 23 -9 26 -16z
m-1178 -12 c-20 -13 -50 -13 -50 0 0 6 15 10 33 10 24 0 28 -3 17 -10z m-430
-20 c0 -5 -4 -10 -10 -10 -5 0 -10 5 -10 10 0 6 5 10 10 10 6 0 10 -4 10 -10z
m1080 -20 c0 -5 -6 -10 -14 -10 -8 0 -18 5 -21 10 -3 6 3 10 14 10 12 0 21 -4
21 -10z m-374 -45 c-4 -11 2 -15 24 -15 16 0 35 7 44 15 16 17 66 21 66 5 0
-5 -9 -10 -20 -10 -11 0 -20 -4 -20 -10 0 -9 29 -15 58 -11 8 1 20 -6 28 -16
12 -17 13 -16 14 10 0 20 -5 27 -20 27 -11 0 -20 5 -20 10 0 15 29 12 46 -4
17 -17 19 -66 3 -66 -8 0 -8 -4 -2 -12 11 -14 10 -131 -1 -165 -5 -16 -3 -23
5 -23 7 0 5 -6 -6 -13 -10 -8 -15 -19 -11 -25 3 -6 2 -13 -4 -17 -17 -10 -11
-25 10 -25 23 0 25 -19 8 -67 -15 -42 -33 -43 -24 -1 6 31 6 31 -10 13 -15
-20 -15 -19 -10 4 7 33 -9 15 -28 -33 -14 -33 -14 -37 -1 -26 20 17 20 -4 -1
-24 -18 -19 -28 -21 -18 -4 4 7 3 8 -4 4 -7 -4 -12 -20 -12 -37 0 -16 -5 -29
-11 -29 -5 0 -7 4 -4 10 4 6 -4 9 -17 7 -20 -2 -23 2 -20 27 2 16 -1 32 -6 35
-10 6 -27 151 -18 151 3 0 10 -15 15 -32 9 -31 9 -31 7 14 -1 26 -5 50 -8 54
-4 3 -5 20 -2 38 4 24 3 27 -5 16 -6 -8 -11 -30 -11 -47 0 -18 -4 -33 -10 -33
-16 0 -11 70 6 88 15 14 15 17 0 27 -17 13 -23 81 -6 70 17 -10 11 1 -14 28
-13 14 -26 32 -29 39 -4 10 -8 10 -16 -2 -7 -10 -11 -11 -11 -2 0 6 -9 12 -20
12 -35 0 -25 37 12 44 17 3 33 4 36 1 3 -3 -2 -5 -11 -5 -10 0 -17 -8 -16 -17
0 -11 3 -13 6 -5 2 6 11 12 19 12 8 0 14 7 14 15 0 8 7 15 16 15 10 0 14 -6
10 -15z m54 5 c0 -5 -9 -10 -20 -10 -11 0 -20 5 -20 10 0 6 9 10 20 10 11 0
20 -4 20 -10z m690 0 c11 -7 7 -10 -17 -10 -18 0 -33 5 -33 10 0 13 30 13 50
0z m40 0 c0 -5 -2 -10 -4 -10 -3 0 -8 5 -11 10 -3 6 -1 10 4 10 6 0 11 -4 11
-10z m-1650 -20 c0 -5 -5 -10 -11 -10 -5 0 -7 5 -4 10 3 6 8 10 11 10 2 0 4
-4 4 -10z m1160 -60 c0 -5 -4 -10 -10 -10 -5 0 -10 5 -10 10 0 6 5 10 10 10 6
0 10 -4 10 -10z m-1240 -20 c0 -5 -4 -10 -10 -10 -5 0 -10 5 -10 10 0 6 5 10
10 10 6 0 10 -4 10 -10z m796 -55 c-3 -8 0 -14 6 -12 6 1 17 -9 25 -23 15 -29
18 -120 3 -120 -5 0 -10 -14 -10 -31 0 -26 -3 -30 -22 -27 -22 3 -23 7 -21 78
1 52 -1 69 -7 55 -9 -18 -9 -18 -8 5 1 14 -1 31 -6 38 -5 8 -1 21 10 33 20 23
39 25 30 4z m-176 -4 c0 -6 -4 -13 -10 -16 -5 -3 -10 1 -10 9 0 9 5 16 10 16
6 0 10 -4 10 -9z m60 -11 c0 -22 -16 -27 -23 -7 -2 6 -3 -55 -1 -137 3 -105 7
-152 16 -157 7 -4 9 -11 5 -15 -4 -4 -16 4 -28 17 l-21 24 3 -30 c2 -17 0 -36
-4 -43 -6 -8 -2 -12 12 -12 25 0 26 -6 7 -26 -18 -18 -26 -18 -26 0 0 16 -51
10 -62 -8 -10 -16 -37 23 -37 54 0 14 3 42 8 62 5 22 5 36 0 32 -18 -11 -14
116 5 129 8 6 8 10 -1 14 -7 2 -13 11 -13 20 0 19 29 48 38 38 4 -4 1 -10 -5
-12 -7 -3 -13 -13 -13 -23 0 -10 6 -21 13 -24 10 -5 10 -7 0 -12 -18 -8 -16
-24 2 -24 8 0 15 8 16 18 2 47 12 72 42 106 36 40 67 48 67 16z m-616 -57 c-4
-21 -14 -51 -23 -68 l-15 -30 -5 25 -4 25 -8 -25 c-5 -20 -7 -16 -7 20 -1 33
2 40 8 25 l8 -20 7 20 c24 70 50 88 39 28z m620 1 c10 -25 7 -72 -3 -55 -5 7
-6 22 -4 32 3 10 0 19 -6 19 -6 0 -11 5 -11 10 0 16 17 12 24 -6z m-393 -6 c3
-50 -1 -240 -6 -248 -9 -15 -25 -12 -25 5 0 8 -6 15 -12 16 -10 0 -10 2 0 6 7
3 12 22 12 46 0 31 -3 38 -10 27 -14 -22 -12 0 5 56 8 27 15 61 15 77 0 26 19
40 21 15z m-190 -58 c10 0 19 -4 19 -10 0 -5 -9 -10 -19 -10 -20 0 -32 20 -30
48 1 10 4 8 6 -5 3 -15 12 -23 24 -23z m150 -11 c-5 -13 -10 -19 -10 -12 -1
15 10 45 15 40 3 -2 0 -15 -5 -28z m-31 -39 c0 -16 -4 -30 -10 -30 -5 0 -10
14 -10 30 0 17 5 30 10 30 6 0 10 -13 10 -30z m456 -67 c-11 -11 -17 4 -9 23
7 18 8 18 11 1 2 -10 1 -21 -2 -24z m-456 -33 c0 -16 -4 -30 -10 -30 -5 0 -10
14 -10 30 0 17 5 30 10 30 6 0 10 -13 10 -30z m951 -57 c-8 -15 -10 -15 -11
-2 0 17 10 32 18 25 2 -3 -1 -13 -7 -23z m-51 -42 c0 -5 -6 -12 -12 -14 -10
-4 -9 -8 2 -16 8 -5 11 -14 6 -18 -5 -4 -11 -2 -13 5 -7 19 -23 14 -23 -8 0
-11 -4 -20 -10 -20 -18 0 -11 30 13 55 23 25 37 31 37 16z m-920 -267 c0 -24
-28 -47 -48 -38 -15 6 -14 8 6 11 33 6 27 23 -8 23 -16 0 -30 5 -30 10 0 6 18
10 40 10 30 0 40 -4 40 -16z m566 -19 c17 -16 14 -18 -10 -9 -9 3 -16 10 -16
15 0 13 9 11 26 -6z m-466 -95 c0 -5 -4 -10 -10 -10 -5 0 -10 5 -10 10 0 6 5
10 10 10 6 0 10 -4 10 -10z m230 -10 c0 -5 -4 -10 -10 -10 -5 0 -10 5 -10 10
0 6 5 10 10 10 6 0 10 -4 10 -10z"/>
<path d="M6831 8054 c0 -11 3 -14 6 -6 3 7 2 16 -1 19 -3 4 -6 -2 -5 -13z"/>
<path d="M6720 8038 c0 -12 3 -18 7 -14 11 10 12 36 2 36 -5 0 -9 -10 -9 -22z"/>
<path d="M6142 7475 c0 -16 2 -22 5 -12 2 9 2 23 0 30 -3 6 -5 -1 -5 -18z"/>
<path d="M5861 7384 c0 -11 3 -14 6 -6 3 7 2 16 -1 19 -3 4 -6 -2 -5 -13z"/>
<path d="M6425 8650 c-3 -5 -1 -10 4 -10 6 0 11 5 11 10 0 6 -2 10 -4 10 -3 0
-8 -4 -11 -10z"/>
<path d="M7413 8502 c0 -10 7 -19 13 -19 9 0 10 5 3 19 -5 10 -12 18 -14 18
-2 0 -3 -8 -2 -18z"/>
<path d="M6267 8407 c-11 -29 -9 -53 4 -40 6 6 9 21 7 34 -3 21 -4 22 -11 6z"/>
<path d="M6257 8323 c-4 -3 -6 -31 -6 -62 l1 -56 9 59 c9 60 8 72 -4 59z"/>
<path d="M7482 8125 c0 -16 2 -22 5 -12 2 9 2 23 0 30 -3 6 -5 -1 -5 -18z"/>
<path d="M6723 7733 c9 -2 23 -2 30 0 6 3 -1 5 -18 5 -16 0 -22 -2 -12 -5z"/>
<path d="M4706 6822 c-3 -6 11 -9 37 -8 23 0 60 -3 82 -8 33 -7 38 -6 27 5
-15 16 -137 25 -146 11z"/>
<path d="M4735 6800 c-3 -5 3 -10 15 -10 12 0 18 5 15 10 -3 6 -10 10 -15 10
-5 0 -12 -4 -15 -10z"/>
<path d="M4876 6796 c4 -10 16 -16 33 -15 20 1 22 2 6 6 -11 3 -26 10 -33 15
-9 8 -11 7 -6 -6z"/>
<path d="M5053 6763 c15 -2 37 -2 50 0 12 2 0 4 -28 4 -27 0 -38 -2 -22 -4z"/>
<path d="M4541 6751 c-10 -6 -10 -10 -1 -16 13 -8 24 -1 19 14 -3 6 -10 7 -18
2z"/>
<path d="M5521 6594 c0 -11 3 -14 6 -6 3 7 2 16 -1 19 -3 4 -6 -2 -5 -13z"/>
<path d="M5422 6574 c-13 -13 -27 -22 -32 -19 -5 3 -8 -3 -8 -12 0 -10 -2 -27
-6 -38 -4 -11 0 -8 9 8 8 15 20 27 25 27 14 0 12 -11 -4 -24 -8 -6 -17 -21
-21 -33 -5 -20 -3 -23 20 -23 41 0 55 22 55 84 0 31 -3 56 -7 55 -5 0 -18 -11
-31 -25z"/>
<path d="M5490 6510 c-7 -17 -10 -33 -6 -37 3 -3 6 2 6 13 0 14 2 16 9 6 6
-10 10 -8 14 10 14 49 -4 55 -23 8z"/>
<path d="M5476 6443 c-6 -14 -5 -15 5 -6 7 7 10 15 7 18 -3 3 -9 -2 -12 -12z"/>
<path d="M5420 6429 c0 -6 -18 -9 -45 -8 -41 3 -47 0 -60 -23 -10 -20 -10 -28
-2 -32 7 -2 4 -5 -6 -5 -11 -1 -21 8 -24 19 -9 34 -23 22 -23 -20 0 -22 5 -40
10 -40 6 0 10 -18 10 -40 0 -22 -4 -40 -9 -40 -13 0 -20 -49 -7 -54 6 -2 3 -5
-6 -5 -19 -1 -26 -31 -7 -31 5 0 7 5 4 10 -3 6 -2 10 2 10 5 0 18 7 29 16 10
8 12 12 4 8 -10 -5 -9 0 4 14 11 12 26 22 35 23 10 0 12 2 4 6 -20 7 -15 20
10 28 12 4 24 7 27 7 3 0 14 12 25 26 18 25 18 26 0 12 -17 -14 -17 -14 -5 7
8 12 17 20 21 17 4 -2 11 1 15 7 4 7 3 9 -3 6 -12 -8 -27 22 -17 32 4 3 9 0
11 -6 3 -7 11 -13 19 -13 9 0 12 5 9 10 -3 6 -2 10 3 10 5 0 12 9 15 20 3 13
0 20 -9 20 -8 0 -14 5 -14 10 0 6 -4 10 -10 10 -5 0 -10 -5 -10 -11z m20 -19
c0 -5 -4 -10 -10 -10 -5 0 -10 5 -10 10 0 6 5 10 10 10 6 0 10 -4 10 -10z"/>
<path d="M4816 6098 c3 -5 10 -6 15 -3 13 9 11 12 -6 12 -8 0 -12 -4 -9 -9z"/>
<path d="M4692 5985 c-20 -20 -20 -23 -6 -29 26 -10 34 -7 34 12 0 10 5 23 12
30 9 9 9 12 -2 11 -8 -1 -25 -11 -38 -24z"/>
<path d="M4423 5426 c-22 -18 -36 -46 -53 -103 -22 -73 -23 -88 -17 -288 7
-237 26 -485 63 -815 14 -124 32 -286 39 -360 8 -74 26 -232 40 -350 49 -407
70 -642 91 -1020 13 -249 14 -335 2 -675 -7 -214 -13 -531 -13 -703 l0 -312
-30 -5 c-16 -3 -57 -9 -90 -15 -115 -19 -372 -39 -580 -45 -226 -8 -263 -15
-284 -61 -17 -39 -13 -70 13 -101 24 -27 27 -28 123 -27 330 5 564 31 1083
118 579 98 734 107 1807 99 l792 -6 35 35 c20 20 36 43 36 51 0 33 -21 68 -52
87 -31 19 -51 20 -383 20 -432 0 -1236 -17 -1485 -30 -192 -11 -473 -40 -613
-64 -45 -8 -106 -17 -136 -21 l-54 -7 9 393 c12 541 10 1186 -4 1344 -7 72
-19 211 -28 310 -16 190 -51 523 -59 565 -4 24 -33 270 -75 645 -40 359 -52
526 -65 880 -8 206 -18 378 -25 402 -7 23 -22 51 -35 63 l-22 21 -30 -25z"/>
</g>
</svg>
